<?xml version="1.0" encoding="UTF-8"?>
<svg version="1.1" xmlns="http://www.w3.org/2000/svg" width="150" height="150">
<path d="M0 0 C46.53 0 93.06 0 141 0 C141 2.97 141 5.94 141 9 C143.97 9 146.94 9 150 9 C150 33.75 150 58.5 150 84 C147.03 84 144.06 84 141 84 C141 87.3 141 90.6 141 94 C143.97 94 146.94 94 150 94 C150 109.51 150 125.02 150 141 C140.76 141 131.52 141 122 141 C122 143.97 122 146.94 122 150 C88.01 150 54.02 150 19 150 C19 147.03 19 144.06 19 141 C15.7 141 12.4 141 9 141 C9 137.7 9 134.4 9 131 C6.03 131 3.06 131 0 131 C0 125.06 0 119.12 0 113 C2.97 113 5.94 113 9 113 C9 109.7 9 106.4 9 103 C6.03 103 3.06 103 0 103 C0 69.01 0 35.02 0 0 Z " fill="#FFB27F" transform="translate(0,0)"/>
<path d="M0 0 C46.53 0 93.06 0 141 0 C141 2.97 141 5.94 141 9 C143.97 9 146.94 9 150 9 C150 33.75 150 58.5 150 84 C147.03 84 144.06 84 141 84 C141 87.3 141 90.6 141 94 C143.97 94 146.94 94 150 94 C150 109.51 150 125.02 150 141 C140.76 141 131.52 141 122 141 C122 137.7 122 134.4 122 131 C124.97 131 127.94 131 131 131 C131 118.79 131 106.58 131 94 C128.03 94 125.06 94 122 94 C122 90.7 122 87.4 122 84 C119.03 84 116.06 84 113 84 C113 87.3 113 90.6 113 94 C109.7 94 106.4 94 103 94 C103 90.7 103 87.4 103 84 C100.03 84 97.06 84 94 84 C94 81.03 94 78.06 94 75 C90.7 75 87.4 75 84 75 C84 68.73 84 62.46 84 56 C81.03 56 78.06 56 75 56 C75 53.03 75 50.06 75 47 C72.03 47 69.06 47 66 47 C66 44.03 66 41.06 66 38 C62.7 38 59.4 38 56 38 C56 34.7 56 31.4 56 28 C43.79 28 31.58 28 19 28 C19 31.3 19 34.6 19 38 C15.7 38 12.4 38 9 38 C9 40.97 9 43.94 9 47 C6.03 47 3.06 47 0 47 C0 31.49 0 15.98 0 0 Z " fill="#FF0000" transform="translate(0,0)"/>
<path d="M0 0 C6.27 0 12.54 0 19 0 C19 24.75 19 49.5 19 75 C21.97 75 24.94 75 28 75 C28 90.51 28 106.02 28 122 C18.76 122 9.52 122 0 122 C0 118.7 0 115.4 0 112 C2.97 112 5.94 112 9 112 C9 99.79 9 87.58 9 75 C6.03 75 3.06 75 0 75 C0 71.7 0 68.4 0 65 C-2.97 65 -5.94 65 -9 65 C-9 68.3 -9 71.6 -9 75 C-12.3 75 -15.6 75 -19 75 C-19 56.52 -19 38.04 -19 19 C-15.7 19 -12.4 19 -9 19 C-9 15.7 -9 12.4 -9 9 C-6.03 9 -3.06 9 0 9 C0 6.03 0 3.06 0 0 Z " fill="#992035" transform="translate(122,19)"/>
<path d="M0 0 C12.21 0 24.42 0 37 0 C37 3.3 37 6.6 37 10 C40.3 10 43.6 10 47 10 C47 12.97 47 15.94 47 19 C49.97 19 52.94 19 56 19 C56 21.97 56 24.94 56 28 C58.97 28 61.94 28 65 28 C65 34.27 65 40.54 65 47 C59.06 47 53.12 47 47 47 C47 49.97 47 52.94 47 56 C40.73 56 34.46 56 28 56 C28 53.03 28 50.06 28 47 C25.03 47 22.06 47 19 47 C19 40.73 19 34.46 19 28 C15.7 28 12.4 28 9 28 C9 34.27 9 40.54 9 47 C2.73 47 -3.54 47 -10 47 C-10 44.03 -10 41.06 -10 38 C-6.7 38 -3.4 38 0 38 C0 34.7 0 31.4 0 28 C-6.27 28 -12.54 28 -19 28 C-19 25.03 -19 22.06 -19 19 C-16.03 19 -13.06 19 -10 19 C-10 16.03 -10 13.06 -10 10 C-6.7 10 -3.4 10 0 10 C0 6.7 0 3.4 0 0 Z " fill="#0094FF" transform="translate(19,28)"/>
<path d="M0 0 C6.27 0 12.54 0 19 0 C19 3.3 19 6.6 19 10 C15.7 10 12.4 10 9 10 C9 12.97 9 15.94 9 19 C15.27 19 21.54 19 28 19 C28 12.73 28 6.46 28 0 C31.3 0 34.6 0 38 0 C38 6.27 38 12.54 38 19 C40.97 19 43.94 19 47 19 C47 21.97 47 24.94 47 28 C53.27 28 59.54 28 66 28 C66 25.03 66 22.06 66 19 C71.94 19 77.88 19 84 19 C84 34.51 84 50.02 84 66 C81.03 66 78.06 66 75 66 C75 56.76 75 47.52 75 38 C72.03 38 69.06 38 66 38 C66 40.97 66 43.94 66 47 C62.7 47 59.4 47 56 47 C56 44.03 56 41.06 56 38 C53.03 38 50.06 38 47 38 C47 47.24 47 56.48 47 66 C44.03 66 41.06 66 38 66 C38 56.76 38 47.52 38 38 C31.73 38 25.46 38 19 38 C19 44.27 19 50.54 19 57 C15.7 57 12.4 57 9 57 C9 53.7 9 50.4 9 47 C6.03 47 3.06 47 0 47 C0 31.49 0 15.98 0 0 Z " fill="#000000" transform="translate(0,56)"/>
<path d="M0 0 C46.53 0 93.06 0 141 0 C141 2.97 141 5.94 141 9 C143.97 9 146.94 9 150 9 C150 33.75 150 58.5 150 84 C147.03 84 144.06 84 141 84 C141 62.55 141 41.1 141 19 C137.7 19 134.4 19 131 19 C131 15.7 131 12.4 131 9 C90.74 9 50.48 9 9 9 C9 15.27 9 21.54 9 28 C12.3 28 15.6 28 19 28 C19 31.3 19 34.6 19 38 C15.7 38 12.4 38 9 38 C9 40.97 9 43.94 9 47 C6.03 47 3.06 47 0 47 C0 31.49 0 15.98 0 0 Z " fill="#000000" transform="translate(0,0)"/>
<path d="M0 0 C3.3 0 6.6 0 10 0 C10 2.97 10 5.94 10 9 C12.97 9 15.94 9 19 9 C19 12.3 19 15.6 19 19 C22.3 19 25.6 19 29 19 C29 15.7 29 12.4 29 9 C31.97 9 34.94 9 38 9 C38 12.3 38 15.6 38 19 C40.97 19 43.94 19 47 19 C47 31.21 47 43.42 47 56 C44.03 56 41.06 56 38 56 C38 59.3 38 62.6 38 66 C28.76 66 19.52 66 10 66 C10 62.7 10 59.4 10 56 C12.97 56 15.94 56 19 56 C19 53.03 19 50.06 19 47 C12.73 47 6.46 47 0 47 C0 31.49 0 15.98 0 0 Z " fill="#FFB27F" transform="translate(84,75)"/>
<path d="M0 0 C6.27 0 12.54 0 19 0 C19 2.97 19 5.94 19 9 C16.03 9 13.06 9 10 9 C10 12.3 10 15.6 10 19 C19.24 19 28.48 19 38 19 C38 21.97 38 24.94 38 28 C4.01 28 -29.98 28 -65 28 C-65 25.03 -65 22.06 -65 19 C-55.76 19 -46.52 19 -37 19 C-37 15.7 -37 12.4 -37 9 C-24.79 9 -12.58 9 0 9 C0 6.03 0 3.06 0 0 Z " fill="#000000" transform="translate(84,122)"/>
<path d="M0 0 C40.26 0 80.52 0 122 0 C122 3.3 122 6.6 122 10 C119.03 10 116.06 10 113 10 C113 12.97 113 15.94 113 19 C110.03 19 107.06 19 104 19 C104 16.03 104 13.06 104 10 C72.98 10 41.96 10 10 10 C10 12.97 10 15.94 10 19 C6.7 19 3.4 19 0 19 C0 12.73 0 6.46 0 0 Z " fill="#C9101B" transform="translate(9,9)"/>
<path d="M0 0 C6.27 0 12.54 0 19 0 C19 3.3 19 6.6 19 10 C15.7 10 12.4 10 9 10 C9 12.97 9 15.94 9 19 C15.27 19 21.54 19 28 19 C28 12.73 28 6.46 28 0 C31.3 0 34.6 0 38 0 C38 9.24 38 18.48 38 28 C31.73 28 25.46 28 19 28 C19 37.57 19 47.14 19 57 C15.7 57 12.4 57 9 57 C9 53.7 9 50.4 9 47 C6.03 47 3.06 47 0 47 C0 31.49 0 15.98 0 0 Z " fill="#0094FF" transform="translate(0,56)"/>
<path d="M0 0 C2.97 0 5.94 0 9 0 C9 12.21 9 24.42 9 37 C6.03 37 3.06 37 0 37 C0 40.3 0 43.6 0 47 C-9.24 47 -18.48 47 -28 47 C-28 43.7 -28 40.4 -28 37 C-25.03 37 -22.06 37 -19 37 C-19 31.06 -19 25.12 -19 19 C-15.7 19 -12.4 19 -9 19 C-9 15.7 -9 12.4 -9 9 C-6.03 9 -3.06 9 0 9 C0 6.03 0 3.06 0 0 Z " fill="#66BFFF" transform="translate(122,94)"/>
<path d="M0 0 C6.27 0 12.54 0 19 0 C19 12.54 19 25.08 19 38 C9.76 38 0.52 38 -9 38 C-9 34.7 -9 31.4 -9 28 C-6.03 28 -3.06 28 0 28 C0 18.76 0 9.52 0 0 Z " fill="#0026FF" transform="translate(131,103)"/>
<path d="M0 0 C2.97 0 5.94 0 9 0 C9 2.97 9 5.94 9 9 C11.97 9 14.94 9 18 9 C18 15.27 18 21.54 18 28 C12.06 28 6.12 28 0 28 C0 25.03 0 22.06 0 19 C-3.3 19 -6.6 19 -10 19 C-10 15.7 -10 12.4 -10 9 C-6.7 9 -3.4 9 0 9 C0 6.03 0 3.06 0 0 Z " fill="#66BFFF" transform="translate(66,47)"/>
<path d="M0 0 C6.27 0 12.54 0 19 0 C19 6.27 19 12.54 19 19 C9.76 19 0.52 19 -9 19 C-9 15.7 -9 12.4 -9 9 C-6.03 9 -3.06 9 0 9 C0 6.03 0 3.06 0 0 Z " fill="#FFB27F" transform="translate(103,122)"/>
<path d="M0 0 C3.3 0 6.6 0 10 0 C10 2.97 10 5.94 10 9 C12.97 9 15.94 9 19 9 C19 12.3 19 15.6 19 19 C9.76 19 0.52 19 -9 19 C-9 15.7 -9 12.4 -9 9 C-6.03 9 -3.06 9 0 9 C0 6.03 0 3.06 0 0 Z " fill="#000000" transform="translate(131,122)"/>
<path d="M0 0 C12.21 0 24.42 0 37 0 C37 3.3 37 6.6 37 10 C24.79 10 12.58 10 0 10 C0 6.7 0 3.4 0 0 Z " fill="#66BFFF" transform="translate(19,28)"/>
<path d="M0 0 C6.27 0 12.54 0 19 0 C19 3.3 19 6.6 19 10 C21.97 10 24.94 10 28 10 C28 12.97 28 15.94 28 19 C21.73 19 15.46 19 9 19 C9 16.03 9 13.06 9 10 C6.03 10 3.06 10 0 10 C0 6.7 0 3.4 0 0 Z " fill="#000000" transform="translate(122,84)"/>
<path d="M0 0 C12.21 0 24.42 0 37 0 C37 2.97 37 5.94 37 9 C24.79 9 12.58 9 0 9 C0 6.03 0 3.06 0 0 Z " fill="#000000" transform="translate(19,19)"/>
<path d="M0 0 C6.27 0 12.54 0 19 0 C19 3.3 19 6.6 19 10 C15.7 10 12.4 10 9 10 C9 12.97 9 15.94 9 19 C6.03 19 3.06 19 0 19 C0 12.73 0 6.46 0 0 Z " fill="#000000" transform="translate(0,56)"/>
<path d="M0 0 C2.97 0 5.94 0 9 0 C9 6.27 9 12.54 9 19 C2.73 19 -3.54 19 -10 19 C-10 16.03 -10 13.06 -10 10 C-6.7 10 -3.4 10 0 10 C0 6.7 0 3.4 0 0 Z " fill="#66BFFF" transform="translate(19,56)"/>
<path d="M0 0 C2.97 0 5.94 0 9 0 C9 9.24 9 18.48 9 28 C6.03 28 3.06 28 0 28 C0 18.76 0 9.52 0 0 Z " fill="#66BFFF" transform="translate(0,75)"/>
<path d="M0 0 C3.3 0 6.6 0 10 0 C10 6.27 10 12.54 10 19 C6.7 19 3.4 19 0 19 C0 12.73 0 6.46 0 0 Z " fill="#0045FF" transform="translate(131,103)"/>
<path d="M0 0 C3.3 0 6.6 0 10 0 C10 6.27 10 12.54 10 19 C6.7 19 3.4 19 0 19 C0 12.73 0 6.46 0 0 Z " fill="#000000" transform="translate(9,94)"/>
<path d="M0 0 C3.3 0 6.6 0 10 0 C10 6.27 10 12.54 10 19 C6.7 19 3.4 19 0 19 C0 12.73 0 6.46 0 0 Z " fill="#000000" transform="translate(84,56)"/>
<path d="M0 0 C3.3 0 6.6 0 10 0 C10 6.27 10 12.54 10 19 C6.7 19 3.4 19 0 19 C0 12.73 0 6.46 0 0 Z " fill="#000000" transform="translate(28,56)"/>
<path d="M0 0 C3.3 0 6.6 0 10 0 C10 6.27 10 12.54 10 19 C6.7 19 3.4 19 0 19 C0 12.73 0 6.46 0 0 Z " fill="#992035" transform="translate(9,9)"/>
<path d="M0 0 C6.27 0 12.54 0 19 0 C19 2.97 19 5.94 19 9 C12.73 9 6.46 9 0 9 C0 6.03 0 3.06 0 0 Z " fill="#0094FF" transform="translate(103,113)"/>
<path d="M0 0 C6.27 0 12.54 0 19 0 C19 2.97 19 5.94 19 9 C12.73 9 6.46 9 0 9 C0 6.03 0 3.06 0 0 Z " fill="#001AB5" transform="translate(131,94)"/>
<path d="M0 0 C2.97 0 5.94 0 9 0 C9 5.94 9 11.88 9 18 C6.03 18 3.06 18 0 18 C0 12.06 0 6.12 0 0 Z " fill="#000000" transform="translate(0,113)"/>
<path d="M0 0 C3.3 0 6.6 0 10 0 C10 3.3 10 6.6 10 10 C6.7 10 3.4 10 0 10 C0 6.7 0 3.4 0 0 Z " fill="#000000" transform="translate(9,131)"/>
<path d="M0 0 C3.3 0 6.6 0 10 0 C10 3.3 10 6.6 10 10 C6.7 10 3.4 10 0 10 C0 6.7 0 3.4 0 0 Z " fill="#FF0000" transform="translate(103,84)"/>
<path d="M0 0 C3.3 0 6.6 0 10 0 C10 3.3 10 6.6 10 10 C6.7 10 3.4 10 0 10 C0 6.7 0 3.4 0 0 Z " fill="#CE0F19" transform="translate(103,28)"/>
<path d="M0 0 C3.3 0 6.6 0 10 0 C10 3.3 10 6.6 10 10 C6.7 10 3.4 10 0 10 C0 6.7 0 3.4 0 0 Z " fill="#000000" transform="translate(56,28)"/>
<path d="M0 0 C3.3 0 6.6 0 10 0 C10 2.97 10 5.94 10 9 C6.7 9 3.4 9 0 9 C0 6.03 0 3.06 0 0 Z " fill="#0094FF" transform="translate(131,113)"/>
<path d="M0 0 C2.97 0 5.94 0 9 0 C9 3.3 9 6.6 9 10 C6.03 10 3.06 10 0 10 C0 6.7 0 3.4 0 0 Z " fill="#66BFFF" transform="translate(113,84)"/>
<path d="M0 0 C3.3 0 6.6 0 10 0 C10 2.97 10 5.94 10 9 C6.7 9 3.4 9 0 9 C0 6.03 0 3.06 0 0 Z " fill="#66BFFF" transform="translate(84,75)"/>
<path d="M0 0 C3.3 0 6.6 0 10 0 C10 2.97 10 5.94 10 9 C6.7 9 3.4 9 0 9 C0 6.03 0 3.06 0 0 Z " fill="#66BFFF" transform="translate(56,38)"/>
<path d="M0 0 C3.3 0 6.6 0 10 0 C10 2.97 10 5.94 10 9 C6.7 9 3.4 9 0 9 C0 6.03 0 3.06 0 0 Z " fill="#66BFFF" transform="translate(9,38)"/>
<path d="M0 0 C2.97 0 5.94 0 9 0 C9 2.97 9 5.94 9 9 C6.03 9 3.06 9 0 9 C0 6.03 0 3.06 0 0 Z " fill="#0094FF" transform="translate(122,122)"/>
<path d="M0 0 C2.97 0 5.94 0 9 0 C9 2.97 9 5.94 9 9 C6.03 9 3.06 9 0 9 C0 6.03 0 3.06 0 0 Z " fill="#000000" transform="translate(141,94)"/>
<path d="M0 0 C2.97 0 5.94 0 9 0 C9 2.97 9 5.94 9 9 C6.03 9 3.06 9 0 9 C0 6.03 0 3.06 0 0 Z " fill="#0094FF" transform="translate(0,94)"/>
<path d="M0 0 C2.97 0 5.94 0 9 0 C9 2.97 9 5.94 9 9 C6.03 9 3.06 9 0 9 C0 6.03 0 3.06 0 0 Z " fill="#66BFFF" transform="translate(0,47)"/>
<path d="M0 0 C2.97 0 5.94 0 9 0 C9 2.97 9 5.94 9 9 C6.03 9 3.06 9 0 9 C0 6.03 0 3.06 0 0 Z " fill="#000000" transform="translate(66,38)"/>
<path d="M0 0 C2.97 0 5.94 0 9 0 C9 2.97 9 5.94 9 9 C6.03 9 3.06 9 0 9 C0 6.03 0 3.06 0 0 Z " fill="#CE0F19" transform="translate(113,19)"/>
</svg>
