<?xml version="1.0" encoding="UTF-8" standalone="no"?>
<svg
   version="1.1"
   width="16"
   height="16"
   id="svg44"
   xmlns="http://www.w3.org/2000/svg"
   xmlns:svg="http://www.w3.org/2000/svg">
  <defs
     id="defs44" />
  <path
     d="m 0,0 c 4.9632,0 9.9264,0 15.04,0 0,0.3168 0,0.6336 0,0.96 0.3168,0 0.6336,0 0.96,0 0,2.64 0,5.28 0,8 -0.3168,0 -0.6336,0 -0.96,0 0,0.352 0,0.704 0,1.066666 0.3168,0 0.6336,0 0.96,0 0,1.654397 0,3.308795 0,5.013334 -0.9856,0 -1.9712,0 -2.986667,0 0,0.3168 0,0.6336 0,0.96 -3.6255997,0 -7.2511997,0 -10.9866663,0 0,-0.3168 0,-0.6336 0,-0.96 -0.352,0 -0.704,0 -1.0666667,0 0,-0.352 0,-0.704 0,-1.06666 -0.3168,0 -0.6336,0 -0.96,0 0,-0.633601 0,-1.267202 0,-1.920003 0.3168,0 0.6336,0 0.96,0 0,-0.352 0,-0.704 0,-1.066675 -0.3168,0 -0.6336,0 -0.96,0 C 0,7.361066 0,3.735466 0,0 Z"
     fill="#ffb27f"
     id="path1"
     style="stroke-width:0.106667" />
  <path
     d="m 0,0 c 4.9632,0 9.9264,0 15.04,0 0,0.3168 0,0.6336 0,0.96 0.3168,0 0.6336,0 0.96,0 0,2.64 0,5.28 0,8 -0.3168,0 -0.6336,0 -0.96,0 0,0.352 0,0.704 0,1.066666 0.3168,0 0.6336,0 0.96,0 0,1.654397 0,3.308795 0,5.013334 -0.9856,0 -1.9712,0 -2.986667,0 0,-0.352 0,-0.704 0,-1.06666 0.3168,0 0.6336,0 0.96,0 0,-1.302403 0,-2.604803 0,-3.946674 -0.3168,0 -0.6336,0 -0.96,0 0,-0.352 0,-0.704 0,-1.066666 -0.3168,0 -0.6336,0 -0.96,0 0,0.352 0,0.704 0,1.066666 -0.352,0 -0.704,0 -1.066666,0 0,-0.352 0,-0.704 0,-1.066666 -0.3168,0 -0.6336,0 -0.96,0 0,-0.3168 0,-0.6336 0,-0.96 C 9.6746667,8 9.3226667,8 8.96,8 c 0,-0.6688 0,-1.3376 0,-2.026666 -0.3168,0 -0.6336,0 -0.96,0 0,-0.3168 0,-0.6336 0,-0.96 -0.3168,0 -0.6336,0 -0.96,0 0,-0.3168 0,-0.6336 0,-0.96 -0.352,0 -0.704,0 -1.0666667,0 0,-0.352 0,-0.704 0,-1.066668 -1.3024,0 -2.6048,0 -3.9466666,0 0,0.352 0,0.704 0,1.066668 -0.352,0 -0.704,0 -1.0666667,0 0,0.3168 0,0.6336 0,0.96 -0.3168,0 -0.6336,0 -0.96,0 C 0,3.358934 0,1.704534 0,0 Z"
     fill="#ff0000"
     id="path2"
     style="stroke-width:0.106667" />
  <path
     d="m 13.013333,2.026666 c 0.6688,0 1.3376,0 2.026667,0 0,2.64 0,5.28 0,8 0.3168,0 0.6336,0 0.96,0 0,1.654397 0,3.308795 0,5.013334 -0.9856,0 -1.9712,0 -2.986667,0 0,-0.352 0,-0.704 0,-1.06666 0.3168,0 0.6336,0 0.96,0 0,-1.302403 0,-2.604803 0,-3.946674 -0.3168,0 -0.6336,0 -0.96,0 0,-0.352 0,-0.704 0,-1.066666 -0.3168,0 -0.6336,0 -0.96,0 0,0.352 0,0.704 0,1.066666 -0.352,0 -0.704,0 -1.066666,0 0,-1.9712 0,-3.9424 0,-5.973332 0.352,0 0.704,0 1.066666,0 0,-0.352 0,-0.704 0,-1.066668 0.3168,0 0.6336,0 0.96,0 0,-0.3168 0,-0.6336 0,-0.96 z"
     fill="#992035"
     id="path3"
     style="stroke-width:0.106667" />
  <path
     d="m 2.0266667,2.986666 c 1.3024,0 2.6048,0 3.9466666,0 0,0.352 0,0.704 0,1.066668 0.352,0 0.704,0 1.0666667,0 0,0.3168 0,0.6336 0,0.96 0.3168,0 0.6336,0 0.96,0 0,0.3168 0,0.6336 0,0.96 0.3168,0 0.6336,0 0.96,0 0,0.6688 0,1.3376 0,2.026666 -0.6336,0 -1.2672,0 -1.92,0 0,0.3168 0,0.6336 0,0.96 -0.6688,0 -1.3376,0 -2.0266667,0 0,-0.3168 0,-0.6336 0,-0.96 -0.3168,0 -0.6336,0 -0.96,0 0,-0.6688 0,-1.3376 0,-2.026666 -0.352,0 -0.704,0 -1.0666666,0 0,0.6688 0,1.3376 0,2.026666 -0.6688,0 -1.3376,0 -2.0266667,0 0,-0.3168 0,-0.6336 0,-0.96 0.352,0 0.704,0 1.0666667,0 0,-0.352 0,-0.704 0,-1.066666 -0.6688,0 -1.33760003,0 -2.0266667,0 0,-0.3168 0,-0.6336 0,-0.96 0.3168,0 0.6336,0 0.96,0 0,-0.3168 0,-0.6336 0,-0.96 0.352,0 0.704,0 1.0666667,0 0,-0.352 0,-0.704 0,-1.066668 z"
     fill="#0094ff"
     id="path4"
     style="stroke-width:0.106667" />
  <path
     d="m 0,5.973334 c 0.6688,0 1.3376,0 2.0266667,0 0,0.352 0,0.704 0,1.066666 -0.352,0 -0.704,0 -1.0666667,0 0,0.3168 0,0.6336 0,0.96 0.6688,0 1.3376,0 2.0266667,0 0,-0.6688 0,-1.3376 0,-2.026666 0.352,0 0.704,0 1.0666666,0 0,0.6688 0,1.3376 0,2.026666 0.3168,0 0.6336,0 0.96,0 0,0.3168 0,0.6336 0,0.96 0.6688,0 1.3376,0 2.0266667,0 0,-0.3168 0,-0.6336 0,-0.96 0.6336,0 1.2672,0 1.92,0 0,1.6544 0,3.3088 0,5.013338 -0.3168,0 -0.6336,0 -0.96,0 0,-0.985601 0,-1.971201 0,-2.986672 -0.3168,0 -0.6336,0 -0.96,0 0,0.3168 0,0.6336 0,0.959996 -0.352,0 -0.704,0 -1.0666667,0 0,-0.316796 0,-0.633596 0,-0.959996 -0.3168,0 -0.6336,0 -0.96,0 0,0.985596 0,1.971197 0,2.986672 -0.3168,0 -0.6336,0 -0.96,0 0,-0.985601 0,-1.971201 0,-2.986672 -0.6688,0 -1.3376,0 -2.0266666,0 0,0.668799 0,1.337597 0,2.026671 -0.352,0 -0.704,0 -1.0666667,0 0,-0.352 0,-0.704 0,-1.066675 -0.3168,0 -0.6336,0 -0.96,0 C 0,9.332266 0,7.677866 0,5.973334 Z"
     fill="#000000"
     id="path5"
     style="stroke-width:0.106667" />
  <path
     d="m 0,0 c 4.9632,0 9.9264,0 15.04,0 0,0.3168 0,0.6336 0,0.96 0.3168,0 0.6336,0 0.96,0 0,2.64 0,5.28 0,8 -0.3168,0 -0.6336,0 -0.96,0 0,-2.288 0,-4.576 0,-6.933334 -0.352,0 -0.704,0 -1.066667,0 0,-0.352 0,-0.7039998 0,-1.066666 -4.2943997,0 -8.5887997,0 -13.013333,0 0,0.6688 0,1.3376 0,2.026666 0.352,0 0.704,0 1.0666667,0 0,0.352 0,0.704 0,1.066668 -0.352,0 -0.704,0 -1.0666667,0 0,0.3168 0,0.6336 0,0.96 -0.3168,0 -0.6336,0 -0.96,0 C 0,3.358934 0,1.704534 0,0 Z"
     fill="#000000"
     id="path6"
     style="stroke-width:0.106667" />
  <path
     d="m 8.96,8 c 0.352,0 0.704,0 1.066667,0 0,0.3168 0,0.6336 0,0.96 0.3168,0 0.6336,0 0.96,0 0,0.352 0,0.704 0,1.066666 0.352,0 0.704,0 1.066666,0 0,-0.352 0,-0.704 0,-1.066666 0.3168,0 0.6336,0 0.96,0 0,0.352 0,0.704 0,1.066666 0.3168,0 0.6336,0 0.96,0 0,1.302397 0,2.604797 0,3.946674 -0.3168,0 -0.6336,0 -0.96,0 0,0.352 0,0.704001 0,1.06666 -0.9856,0 -1.9712,0 -2.986666,0 0,-0.352 0,-0.704 0,-1.06666 0.3168,0 0.6336,0 0.96,0 0,-0.316801 0,-0.633601 0,-0.960002 -0.6688,0 -1.3376003,0 -2.026667,0 0,-1.654401 0,-3.308804 0,-5.013338 z"
     fill="#ffb27f"
     id="path7"
     style="stroke-width:0.106667" />
  <path
     d="m 8.96,13.013338 c 0.6688,0 1.3376,0 2.026667,0 0,0.3168 0,0.633601 0,0.960002 -0.3168,0 -0.6336,0 -0.96,0 0,0.352 0,0.704001 0,1.06666 0.9856,0 1.9712,0 2.986666,0 0,0.3168 0,0.6336 0,0.96 -3.6255997,0 -7.2511997,0 -10.9866663,0 0,-0.3168 0,-0.6336 0,-0.96 0.9856,0 1.9712,0 2.9866666,0 0,-0.352 0,-0.704 0,-1.06666 1.3024,0 2.6048,0 3.9466667,0 0,-0.316801 0,-0.633601 0,-0.960002 z"
     fill="#000000"
     id="path8"
     style="stroke-width:0.106667" />
  <path
     d="m 0.96,0.96 c 4.2944,0 8.5888,0 13.013333,0 0,0.352 0,0.704 0,1.066666 -0.3168,0 -0.6336,0 -0.96,0 0,0.3168 0,0.6336 0,0.96 -0.3168,0 -0.6336,0 -0.96,0 0,-0.3168 0,-0.6336 0,-0.96 -3.3087997,0 -6.6175997,0 -10.0266663,0 0,0.3168 0,0.6336 0,0.96 -0.352,0 -0.704,0 -1.0666667,0 0,-0.6688 0,-1.3376 0,-2.026666 z"
     fill="#c9101b"
     id="path9"
     style="stroke-width:0.106667" />
  <path
     d="m 0,5.973334 c 0.6688,0 1.3376,0 2.0266667,0 0,0.352 0,0.704 0,1.066666 -0.352,0 -0.704,0 -1.0666667,0 0,0.3168 0,0.6336 0,0.96 0.6688,0 1.3376,0 2.0266667,0 0,-0.6688 0,-1.3376 0,-2.026666 0.352,0 0.704,0 1.0666666,0 0,0.9856 0,1.9712 0,2.986666 -0.6688,0 -1.3376,0 -2.0266666,0 0,1.0208 0,2.0416 0,3.093337 -0.352,0 -0.704,0 -1.0666667,0 0,-0.352 0,-0.704 0,-1.066675 -0.3168,0 -0.6336,0 -0.96,0 C 0,9.332266 0,7.677866 0,5.973334 Z"
     fill="#0094ff"
     id="path10"
     style="stroke-width:0.106667" />
  <path
     d="m 13.013333,10.026666 c 0.3168,0 0.6336,0 0.96,0 0,1.302397 0,2.604797 0,3.946674 -0.3168,0 -0.6336,0 -0.96,0 0,0.352 0,0.704001 0,1.06666 -0.9856,0 -1.9712,0 -2.986666,0 0,-0.352 0,-0.704 0,-1.06666 0.3168,0 0.6336,0 0.96,0 0,-0.633601 0,-1.267202 0,-1.920003 0.352,0 0.704,0 1.066666,0 0,-0.352 0,-0.704 0,-1.066675 0.3168,0 0.6336,0 0.96,0 0,-0.316796 0,-0.633596 0,-0.959996 z"
     fill="#66bfff"
     id="path11"
     style="stroke-width:0.106667" />
  <path
     d="m 13.973333,10.986662 c 0.6688,0 1.3376,0 2.026667,0 0,1.337601 0,2.675199 0,4.053338 -0.9856,0 -1.9712,0 -2.986667,0 0,-0.352 0,-0.704 0,-1.06666 0.3168,0 0.6336,0 0.96,0 0,-0.985602 0,-1.971203 0,-2.986678 z"
     fill="#0026ff"
     id="path12"
     style="stroke-width:0.106667" />
  <path
     d="m 7.04,5.013334 c 0.3168,0 0.6336,0 0.96,0 0,0.3168 0,0.6336 0,0.96 0.3168,0 0.6336,0 0.96,0 0,0.6688 0,1.3376 0,2.026666 -0.6336,0 -1.2672,0 -1.92,0 0,-0.3168 0,-0.6336 0,-0.96 -0.352,0 -0.704,0 -1.0666667,0 0,-0.352 0,-0.704 0,-1.066666 0.352,0 0.704,0 1.0666667,0 0,-0.3168 0,-0.6336 0,-0.96 z"
     fill="#66bfff"
     id="path13"
     style="stroke-width:0.106667" />
  <path
     d="m 10.986667,13.013338 c 0.6688,0 1.3376,0 2.026666,0 0,0.668801 0,1.337602 0,2.026662 -0.9856,0 -1.9712,0 -2.986666,0 0,-0.352 0,-0.704 0,-1.06666 0.3168,0 0.6336,0 0.96,0 0,-0.316801 0,-0.633601 0,-0.960002 z"
     fill="#ffb27f"
     id="path14"
     style="stroke-width:0.106667" />
  <path
     d="m 13.973333,13.013338 c 0.352,0 0.704,0 1.066667,0 0,0.3168 0,0.633601 0,0.960002 0.3168,0 0.6336,0 0.96,0 0,0.352 0,0.704001 0,1.06666 -0.9856,0 -1.9712,0 -2.986667,0 0,-0.352 0,-0.704 0,-1.06666 0.3168,0 0.6336,0 0.96,0 0,-0.316801 0,-0.633601 0,-0.960002 z"
     fill="#000000"
     id="path15"
     style="stroke-width:0.106667" />
  <path
     d="m 2.0266667,2.986666 c 1.3024,0 2.6048,0 3.9466666,0 0,0.352 0,0.704 0,1.066668 -1.3024,0 -2.6048,0 -3.9466666,0 0,-0.352 0,-0.704 0,-1.066668 z"
     fill="#66bfff"
     id="path16"
     style="stroke-width:0.106667" />
  <path
     d="m 13.013333,8.96 c 0.6688,0 1.3376,0 2.026667,0 0,0.352 0,0.704 0,1.066666 0.3168,0 0.6336,0 0.96,0 0,0.3168 0,0.6336 0,0.959996 -0.6688,0 -1.3376,0 -2.026667,0 0,-0.316796 0,-0.633596 0,-0.959996 -0.3168,0 -0.6336,0 -0.96,0 0,-0.352 0,-0.704 0,-1.066666 z"
     fill="#000000"
     id="path17"
     style="stroke-width:0.106667" />
  <path
     d="m 2.0266667,2.026666 c 1.3024,0 2.6048,0 3.9466666,0 0,0.3168 0,0.6336 0,0.96 -1.3024,0 -2.6048,0 -3.9466666,0 0,-0.3168 0,-0.6336 0,-0.96 z"
     fill="#000000"
     id="path18"
     style="stroke-width:0.106667" />
  <path
     d="m 0,5.973334 c 0.6688,0 1.3376,0 2.0266667,0 0,0.352 0,0.704 0,1.066666 -0.352,0 -0.704,0 -1.0666667,0 0,0.3168 0,0.6336 0,0.96 C 0.6432,8 0.3264,8 0,8 0,7.3312 0,6.6624 0,5.973334 Z"
     fill="#000000"
     id="path19"
     style="stroke-width:0.106667" />
  <path
     d="m 2.0266667,5.973334 c 0.3168,0 0.6336,0 0.96,0 0,0.6688 0,1.3376 0,2.026666 -0.6688,0 -1.3376,0 -2.0266667,0 0,-0.3168 0,-0.6336 0,-0.96 0.352,0 0.704,0 1.0666667,0 0,-0.352 0,-0.704 0,-1.066666 z"
     fill="#66bfff"
     id="path20"
     style="stroke-width:0.106667" />
  <path
     d="m 0,8 c 0.3168,0 0.6336,0 0.96,0 0,0.9856 0,1.9712 0,2.986662 -0.3168,0 -0.6336,0 -0.96,0 C 0,10.001066 0,9.015466 0,8 Z"
     fill="#66bfff"
     id="path21"
     style="stroke-width:0.106667" />
  <path
     d="m 13.973333,10.986662 c 0.352,0 0.704,0 1.066667,0 0,0.668801 0,1.337601 0,2.026676 -0.352,0 -0.704,0 -1.066667,0 0,-0.668801 0,-1.337601 0,-2.026676 z"
     fill="#0045ff"
     id="path22"
     style="stroke-width:0.106667" />
  <path
     d="m 0.96,10.026666 c 0.352,0 0.704,0 1.0666667,0 0,0.668799 0,1.337597 0,2.026671 -0.352,0 -0.704,0 -1.0666667,0 0,-0.6688 0,-1.337601 0,-2.026671 z"
     fill="#000000"
     id="path23"
     style="stroke-width:0.106667" />
  <path
     d="m 8.96,5.973334 c 0.352,0 0.704,0 1.066667,0 0,0.6688 0,1.3376 0,2.026666 C 9.6746667,8 9.3226667,8 8.96,8 c 0,-0.6688 0,-1.3376 0,-2.026666 z"
     fill="#000000"
     id="path24"
     style="stroke-width:0.106667" />
  <path
     d="m 2.9866667,5.973334 c 0.352,0 0.704,0 1.0666666,0 0,0.6688 0,1.3376 0,2.026666 -0.352,0 -0.704,0 -1.0666666,0 0,-0.6688 0,-1.3376 0,-2.026666 z"
     fill="#000000"
     id="path25"
     style="stroke-width:0.106667" />
  <path
     d="m 0.96,0.96 c 0.352,0 0.704,0 1.0666667,0 0,0.6688 0,1.3376 0,2.026666 -0.352,0 -0.704,0 -1.0666667,0 0,-0.6688 0,-1.3376 0,-2.026666 z"
     fill="#992035"
     id="path26"
     style="stroke-width:0.106667" />
  <path
     d="m 10.986667,12.053337 c 0.6688,0 1.3376,0 2.026666,0 0,0.3168 0,0.633601 0,0.960001 -0.6688,0 -1.3376,0 -2.026666,0 0,-0.3168 0,-0.633601 0,-0.960001 z"
     fill="#0094ff"
     id="path27"
     style="stroke-width:0.106667" />
  <path
     d="m 13.973333,10.026666 c 0.6688,0 1.3376,0 2.026667,0 0,0.3168 0,0.6336 0,0.959996 -0.6688,0 -1.3376,0 -2.026667,0 0,-0.316796 0,-0.633596 0,-0.959996 z"
     fill="#001ab5"
     id="path28"
     style="stroke-width:0.106667" />
  <path
     d="m 0,12.053337 c 0.3168,0 0.6336,0 0.96,0 0,0.633601 0,1.267201 0,1.920003 -0.3168,0 -0.6336,0 -0.96,0 0,-0.633601 0,-1.267202 0,-1.920003 z"
     fill="#000000"
     id="path29"
     style="stroke-width:0.106667" />
  <path
     d="m 0.96,13.97334 c 0.352,0 0.704,0 1.0666667,0 0,0.352 0,0.704001 0,1.06666 -0.352,0 -0.704,0 -1.0666667,0 0,-0.352 0,-0.704 0,-1.06666 z"
     fill="#000000"
     id="path30"
     style="stroke-width:0.106667" />
  <path
     d="m 10.986667,8.96 c 0.352,0 0.704,0 1.066666,0 0,0.352 0,0.704 0,1.066666 -0.352,0 -0.704,0 -1.066666,0 0,-0.352 0,-0.704 0,-1.066666 z"
     fill="#ff0000"
     id="path31"
     style="stroke-width:0.106667" />
  <path
     d="m 10.986667,2.986666 c 0.352,0 0.704,0 1.066666,0 0,0.352 0,0.704 0,1.066668 -0.352,0 -0.704,0 -1.066666,0 0,-0.352 0,-0.704 0,-1.066668 z"
     fill="#ce0f19"
     id="path32"
     style="stroke-width:0.106667" />
  <path
     d="m 5.9733333,2.986666 c 0.352,0 0.704,0 1.0666667,0 0,0.352 0,0.704 0,1.066668 -0.352,0 -0.704,0 -1.0666667,0 0,-0.352 0,-0.704 0,-1.066668 z"
     fill="#000000"
     id="path33"
     style="stroke-width:0.106667" />
  <path
     d="m 13.973333,12.053337 c 0.352,0 0.704,0 1.066667,0 0,0.3168 0,0.633601 0,0.960001 -0.352,0 -0.704,0 -1.066667,0 0,-0.3168 0,-0.633601 0,-0.960001 z"
     fill="#0094ff"
     id="path34"
     style="stroke-width:0.106667" />
  <path
     d="m 12.053333,8.96 c 0.3168,0 0.6336,0 0.96,0 0,0.352 0,0.704 0,1.066666 -0.3168,0 -0.6336,0 -0.96,0 0,-0.352 0,-0.704 0,-1.066666 z"
     fill="#66bfff"
     id="path35"
     style="stroke-width:0.106667" />
  <path
     d="m 8.96,8 c 0.352,0 0.704,0 1.066667,0 0,0.3168 0,0.6336 0,0.96 -0.3520003,0 -0.7040003,0 -1.066667,0 0,-0.3168 0,-0.6336 0,-0.96 z"
     fill="#66bfff"
     id="path36"
     style="stroke-width:0.106667" />
  <path
     d="m 5.9733333,4.053334 c 0.352,0 0.704,0 1.0666667,0 0,0.3168 0,0.6336 0,0.96 -0.352,0 -0.704,0 -1.0666667,0 0,-0.3168 0,-0.6336 0,-0.96 z"
     fill="#66bfff"
     id="path37"
     style="stroke-width:0.106667" />
  <path
     d="m 0.96,4.053334 c 0.352,0 0.704,0 1.0666667,0 0,0.3168 0,0.6336 0,0.96 -0.352,0 -0.704,0 -1.0666667,0 0,-0.3168 0,-0.6336 0,-0.96 z"
     fill="#66bfff"
     id="path38"
     style="stroke-width:0.106667" />
  <path
     d="m 13.013333,13.013338 c 0.3168,0 0.6336,0 0.96,0 0,0.3168 0,0.633601 0,0.960002 -0.3168,0 -0.6336,0 -0.96,0 0,-0.316801 0,-0.633601 0,-0.960002 z"
     fill="#0094ff"
     id="path39"
     style="stroke-width:0.106667" />
  <path
     d="m 15.04,10.026666 c 0.3168,0 0.6336,0 0.96,0 0,0.3168 0,0.6336 0,0.959996 -0.3168,0 -0.6336,0 -0.96,0 0,-0.316796 0,-0.633596 0,-0.959996 z"
     fill="#000000"
     id="path40"
     style="stroke-width:0.106667" />
  <path
     d="m 0,10.026666 c 0.3168,0 0.6336,0 0.96,0 0,0.3168 0,0.6336 0,0.959996 -0.3168,0 -0.6336,0 -0.96,0 0,-0.316796 0,-0.633596 0,-0.959996 z"
     fill="#0094ff"
     id="path41"
     style="stroke-width:0.106667" />
  <path
     d="m 0,5.013334 c 0.3168,0 0.6336,0 0.96,0 0,0.3168 0,0.6336 0,0.96 -0.3168,0 -0.6336,0 -0.96,0 0,-0.3168 0,-0.6336 0,-0.96 z"
     fill="#66bfff"
     id="path42"
     style="stroke-width:0.106667" />
  <path
     d="m 7.04,4.053334 c 0.3168,0 0.6336,0 0.96,0 0,0.3168 0,0.6336 0,0.96 -0.3168,0 -0.6336,0 -0.96,0 0,-0.3168 0,-0.6336 0,-0.96 z"
     fill="#000000"
     id="path43"
     style="stroke-width:0.106667" />
  <path
     d="m 12.053333,2.026666 c 0.3168,0 0.6336,0 0.96,0 0,0.3168 0,0.6336 0,0.96 -0.3168,0 -0.6336,0 -0.96,0 0,-0.3168 0,-0.6336 0,-0.96 z"
     fill="#ce0f19"
     id="path44"
     style="stroke-width:0.106667" />
</svg>
