<?xml version="1.0" encoding="UTF-8" standalone="no"?>
<svg
   version="1.1"
   width="16"
   height="16"
   id="svg44"
   xmlns="http://www.w3.org/2000/svg"
   xmlns:svg="http://www.w3.org/2000/svg">
  <defs
     id="defs44" />
  <path
     d="m 0,5.973334 c 0.6688,0 1.3376,0 2.0266667,0 0,0.352 0,0.704 0,1.066666 -0.352,0 -0.704,0 -1.0666667,0 0,0.3168 0,0.6336 0,0.96 0.6688,0 1.3376,0 2.0266667,0 0,-0.6688 0,-1.3376 0,-2.026666 0.352,0 0.704,0 1.0666666,0 0,0.6688 0,1.3376 0,2.026666 0.3168,0 0.6336,0 0.96,0 0,0.3168 0,0.6336 0,0.96 0.6688,0 1.3376,0 2.0266667,0 0,-0.3168 0,-0.6336 0,-0.96 0.6336,0 1.2672,0 1.92,0 0,1.6544 0,3.3088 0,5.013338 -0.3168,0 -0.6336,0 -0.96,0 0,-0.985601 0,-1.971201 0,-2.986672 -0.3168,0 -0.6336,0 -0.96,0 0,0.3168 0,0.6336 0,0.959996 -0.352,0 -0.704,0 -1.0666667,0 0,-0.316796 0,-0.633596 0,-0.959996 -0.3168,0 -0.6336,0 -0.96,0 0,0.985596 0,1.971197 0,2.986672 -0.3168,0 -0.6336,0 -0.96,0 0,-0.985601 0,-1.971201 0,-2.986672 -0.6688,0 -1.3376,0 -2.0266666,0 0,0.668799 0,1.337597 0,2.026671 -0.352,0 -0.704,0 -1.0666667,0 0,-0.352 0,-0.704 0,-1.066675 -0.3168,0 -0.6336,0 -0.96,0 C 0,9.332266 0,7.677866 0,5.973334 Z"
     fill="#000000"
     id="path5"
     style="fill:#ffffff;stroke-width:0.106667" />
  <path
     d="m 0,0 c 4.9632,0 9.9264,0 15.04,0 0,0.3168 0,0.6336 0,0.96 0.3168,0 0.6336,0 0.96,0 0,2.64 0,5.28 0,8 -0.3168,0 -0.6336,0 -0.96,0 0,-2.288 0,-4.576 0,-6.933334 -0.352,0 -0.704,0 -1.066667,0 0,-0.352 0,-0.7039998 0,-1.066666 -4.2943997,0 -8.5887997,0 -13.013333,0 0,0.6688 0,1.3376 0,2.026666 0.352,0 0.704,0 1.0666667,0 0,0.352 0,0.704 0,1.066668 -0.352,0 -0.704,0 -1.0666667,0 0,0.3168 0,0.6336 0,0.96 -0.3168,0 -0.6336,0 -0.96,0 C 0,3.358934 0,1.704534 0,0 Z"
     fill="#000000"
     id="path6"
     style="fill:#ffffff;stroke-width:0.106667" />
  <path
     d="m 8.96,13.013338 c 0.6688,0 1.3376,0 2.026667,0 0,0.3168 0,0.633601 0,0.960002 -0.3168,0 -0.6336,0 -0.96,0 0,0.352 0,0.704001 0,1.06666 0.9856,0 1.9712,0 2.986666,0 0,0.3168 0,0.6336 0,0.96 -3.6255997,0 -7.2511997,0 -10.9866663,0 0,-0.3168 0,-0.6336 0,-0.96 0.9856,0 1.9712,0 2.9866666,0 0,-0.352 0,-0.704 0,-1.06666 1.3024,0 2.6048,0 3.9466667,0 0,-0.316801 0,-0.633601 0,-0.960002 z"
     fill="#000000"
     id="path8"
     style="fill:#ffffff;stroke-width:0.106667" />
  <path
     d="m 13.013333,8.96 c 0.6688,0 1.3376,0 2.026667,0 0,0.352 0,0.704 0,1.066666 0.3168,0 0.6336,0 0.96,0 0,0.3168 0,0.6336 0,0.959996 -0.6688,0 -1.3376,0 -2.026667,0 0,-0.316796 0,-0.633596 0,-0.959996 -0.3168,0 -0.6336,0 -0.96,0 0,-0.352 0,-0.704 0,-1.066666 z"
     fill="#000000"
     id="path17"
     style="fill:#ffffff;stroke-width:0.106667" />
  <path
     d="m 2.0266667,2.026666 c 1.3024,0 2.6048,0 3.9466666,0 0,0.3168 0,0.6336 0,0.96 -1.3024,0 -2.6048,0 -3.9466666,0 0,-0.3168 0,-0.6336 0,-0.96 z"
     fill="#000000"
     id="path18"
     style="fill:#ffffff;stroke-width:0.106667" />
  <path
     d="m 13.017442,14.081619 c 0.666395,0 1.33279,0 2.019378,0 0,0.3168 0,0.6336 0,0.96 -0.666395,0 -1.33279,0 -2.019378,0 0,-0.3168 0,-0.6336 0,-0.96 z"
     fill="#000000"
     id="path18-4"
     style="fill:#ffffff;stroke-width:0.0762999" />
  <path
     d="m 10.030302,7.999885 c 0.983373,0 1.966747,0 2.979919,0 0,0.3168001 0,0.6336 0,0.9600001 -0.983373,0 -1.966746,0 -2.979919,0 0,-0.3168 0,-0.6336 0,-0.9600001 z"
     fill="#000000"
     id="path18-1"
     style="fill:#ffffff;stroke-width:0.0926866" />
  <path
     d="m 8.96,5.973334 c 0.352,0 0.704,0 1.066667,0 0,0.6688 0,1.3376 0,2.026666 C 9.6746667,8 9.3226667,8 8.96,8 c 0,-0.6688 0,-1.3376 0,-2.026666 z"
     fill="#000000"
     id="path24"
     style="fill:#ffffff;stroke-width:0.106667" />
  <path
     d="m 0,12.053337 c 0.3168,0 0.6336,0 0.96,0 0,0.633601 0,1.267201 0,1.920003 -0.3168,0 -0.6336,0 -0.96,0 0,-0.633601 0,-1.267202 0,-1.920003 z"
     fill="#000000"
     id="path29"
     style="fill:#ffffff;stroke-width:0.106667" />
  <path
     d="m 15.036438,10.98 c 0.3168,0 0.633599,0 0.959999,0 0,1.024589 0,2.049177 0,3.104815 -0.3168,0 -0.6336,0 -0.96,0 0,-1.024589 0,-2.049178 1e-6,-3.104815 z"
     fill="#000000"
     id="path29-4"
     style="fill:#ffffff;stroke-width:0.135644" />
  <path
     d="m 0.96,13.97334 c 0.352,0 0.704,0 1.0666667,0 0,0.352 0,0.704001 0,1.06666 -0.352,0 -0.704,0 -1.0666667,0 0,-0.352 0,-0.704 0,-1.06666 z"
     fill="#000000"
     id="path30"
     style="fill:#ffffff;stroke-width:0.106667" />
  <path
     d="m 5.9733333,2.986666 c 0.352,0 0.704,0 1.0666667,0 0,0.352 0,0.704 0,1.066668 -0.352,0 -0.704,0 -1.0666667,0 0,-0.352 0,-0.704 0,-1.066668 z"
     fill="#000000"
     id="path33"
     style="fill:#ffffff;stroke-width:0.106667" />
  <path
     d="m 7.04,4.053334 c 0.3168,0 0.6336,0 0.96,0 0,0.3168 0,0.6336 0,0.96 -0.3168,0 -0.6336,0 -0.96,0 0,-0.3168 0,-0.6336 0,-0.96 z"
     fill="#000000"
     id="path43"
     style="fill:#ffffff;stroke-width:0.106667" />
  <path
     d="m 7.9993297,5.0148479 c 0.3168001,0 0.6336,0 0.96,0 0,0.3168 0,0.6336001 0,0.96 -0.3168,0 -0.6336,0 -0.96,0 0,-0.3168 0,-0.6336 0,-0.96 z"
     fill="#000000"
     id="path43-5"
     style="fill:#ffffff;stroke-width:0.106667" />
</svg>
